<svg width="373" height="1134" viewBox="0 0 373 1134" fill="none" xmlns="http://www.w3.org/2000/svg">
<rect width="373" height="1023" fill="#1D1A1D"/>
<rect x="18" y="66" width="337" height="891" rx="16" fill="#0D0C0D"/>
<rect x="36" y="82" width="300" height="64" rx="16" fill="#181518"/>
<rect x="36" y="178" width="300" height="100" rx="16" fill="#181518"/>
<rect x="36" y="310" width="300" height="192" rx="16" fill="#181518"/>
<rect x="36" y="534" width="69" height="26" rx="13" fill="#D9D9D9"/>
<rect x="115" y="534" width="69" height="26" rx="13" fill="#D9D9D9"/>
<rect x="194" y="534" width="69" height="26" rx="13" fill="#D9D9D9"/>
<rect x="36" y="576" width="69" height="26" rx="13" fill="#D9D9D9"/>
<rect x="115" y="576" width="69" height="26" rx="13" fill="#D9D9D9"/>
<g clip-path="url(#clip0_174_268)">
<rect x="36" y="668" width="300" height="168" rx="16" fill="#181518"/>
<rect x="36" y="855" width="150" height="86" rx="8" fill="#1D1A1D"/>
<rect x="204" y="855" width="150" height="86" rx="8" fill="#1D1A1D"/>
</g>
<defs>
<clipPath id="clip0_174_268">
<rect width="300" height="466" fill="white" transform="translate(36 668)"/>
</clipPath>
</defs>
</svg>
