<svg width="1528" height="848" viewBox="0 0 1528 848" fill="none" xmlns="http://www.w3.org/2000/svg">
<rect width="1528" height="848" fill="#1D1A1D"/>
<rect x="73" y="153" width="1382" height="542" rx="16" fill="#0D0C0D"/>
<rect x="109" y="191" width="577" height="32" rx="16" fill="#181518"/>
<rect x="109" y="255" width="387" height="100" rx="16" fill="#181518"/>
<rect x="109" y="387" width="512" height="100" rx="16" fill="#181518"/>
<rect x="109" y="519" width="69" height="26" rx="13" fill="#D9D9D9"/>
<rect x="188" y="519" width="69" height="26" rx="13" fill="#D9D9D9"/>
<rect x="267" y="519" width="69" height="26" rx="13" fill="#D9D9D9"/>
<rect x="109" y="561" width="69" height="26" rx="13" fill="#D9D9D9"/>
<rect x="188" y="561" width="69" height="26" rx="13" fill="#D9D9D9"/>
<rect x="267" y="561" width="69" height="26" rx="13" fill="#D9D9D9"/>
<g clip-path="url(#clip0_159_95)">
<rect x="839" y="191" width="577" height="325" rx="16" fill="#181518"/>
<rect x="839" y="571" width="150" height="86" rx="8" fill="#1D1A1D"/>
<rect x="1007" y="571" width="150" height="86" rx="8" fill="#1D1A1D"/>
<rect x="1175" y="571" width="150" height="86" rx="8" fill="#1D1A1D"/>
<rect x="1343" y="571" width="150" height="86" rx="8" fill="#1D1A1D"/>
</g>
<defs>
<clipPath id="clip0_159_95">
<rect width="577" height="466" fill="white" transform="translate(839 191)"/>
</clipPath>
</defs>
</svg>
