<svg width="282" height="82" viewBox="0 0 282 82" fill="none" xmlns="http://www.w3.org/2000/svg">
<path d="M16.28 42.3686C14.2 42.3686 12.2667 42.0086 10.48 41.2886C8.69333 40.5419 7.12 39.5152 5.76 38.2086C4.4 36.8752 3.33333 35.3419 2.56 33.6086C1.81333 31.8486 1.44 29.9552 1.44 27.9286C1.44 25.9019 1.81333 24.0219 2.56 22.2886C3.33333 20.5286 4.38667 18.9952 5.72 17.6886C7.05333 16.3552 8.61333 15.3286 10.4 14.6086C12.2133 13.8619 14.1467 13.4886 16.2 13.4886C18.52 13.4886 20.7067 13.9552 22.76 14.8886C24.8133 15.7952 26.5067 17.0752 27.84 18.7286L23.8 22.4486C22.84 21.2486 21.7067 20.3419 20.4 19.7286C19.0933 19.1152 17.6933 18.8086 16.2 18.8086C14.9467 18.8086 13.7867 19.0486 12.72 19.5286C11.6533 19.9819 10.72 20.6219 9.92 21.4486C9.12 22.2486 8.49333 23.2086 8.04 24.3286C7.61333 25.4219 7.4 26.6219 7.4 27.9286C7.4 29.2352 7.62667 30.4486 8.08 31.5686C8.53333 32.6886 9.16 33.6619 9.96 34.4886C10.7867 35.2886 11.7333 35.9286 12.8 36.4086C13.8933 36.8619 15.08 37.0886 16.36 37.0886C17.6933 37.0886 18.8933 36.8486 19.96 36.3686C21.0267 35.8619 21.92 35.1686 22.64 34.2886C23.3867 33.3819 23.88 32.3686 24.12 31.2486H15.84V26.2086H30.32V27.9686C30.32 30.0486 29.96 31.9686 29.24 33.7286C28.5467 35.4619 27.5733 36.9819 26.32 38.2886C25.0667 39.5686 23.5867 40.5686 21.88 41.2886C20.1733 42.0086 18.3067 42.3686 16.28 42.3686ZM31.6298 41.9286L40.8458 19.5286H46.1898L55.3098 41.9286H50.2858L48.0138 36.0406H38.7658L36.4618 41.9286H31.6298ZM40.2058 32.3286H46.6058L43.4058 24.0726L40.2058 32.3286ZM57.2113 41.9286V19.5286H63.1633L69.3073 31.6246L75.4513 19.5286H81.4033V41.9286H77.0193V25.4486L69.2433 40.3286L61.4993 25.3846V41.9286H57.2113ZM85.4301 41.9286V19.5286H102.646V23.5606H90.0701V28.6806H98.3581V32.5846H90.0701V37.8966H102.774V41.9286H85.4301ZM112.997 41.9286V13.9286H120.437L128.117 29.0486L135.797 13.9286H143.237V41.9286H137.757V21.3286L128.037 39.9286L118.357 21.2486V41.9286H112.997ZM145.622 41.9286L154.838 19.5286H160.182L169.302 41.9286H164.278L162.006 36.0406H152.758L150.454 41.9286H145.622ZM154.198 32.3286H160.598L157.398 24.0726L154.198 32.3286ZM171.204 41.9286V19.5286H175.62L186.756 33.9926V19.5286H191.108V41.9286H187.012L175.588 26.9526V41.9286H171.204ZM195.172 41.9286V19.5286H199.812V41.9286H195.172ZM201.747 41.9286L210.963 19.5286H216.307L225.427 41.9286H220.403L218.131 36.0406H208.883L206.579 41.9286H201.747ZM210.323 32.3286H216.723L213.523 24.0726L210.323 32.3286Z" fill="#25E4E1"/>
<g clip-path="url(#clip0_45_376)">
<path d="M255.536 1.10356C257.068 0.267848 258.921 0.267848 260.464 1.10356L279.246 11.3571C279.793 11.6571 280.136 12.2357 280.136 12.8571C280.136 13.4786 279.793 14.0571 279.246 14.3571L258.825 25.5C258.311 25.7786 257.7 25.7786 257.186 25.5L236.754 14.3571C236.207 14.0571 235.864 13.4786 235.864 12.8571C235.864 12.2357 236.207 11.6571 236.754 11.3571L255.536 1.10356ZM236.539 18.2143L255.396 28.5C255.943 28.8 256.286 29.3786 256.286 30V53.1428C256.286 53.7428 255.964 54.3107 255.45 54.6214C254.936 54.9321 254.282 54.9428 253.757 54.6536L236.679 45.3321C235.029 44.4321 234 42.7071 234 40.8214V19.7143C234 19.1143 234.321 18.5464 234.836 18.2357C235.35 17.925 236.004 17.9143 236.529 18.2036L236.539 18.2143ZM279.471 18.2143C280.007 17.925 280.65 17.9357 281.164 18.2464C281.679 18.5571 282 19.1143 282 19.725V40.8321C282 42.7178 280.971 44.4428 279.321 45.3428L262.254 54.6428C261.718 54.9321 261.075 54.9214 260.561 54.6107C260.046 54.3 259.725 53.7428 259.725 53.1321V29.9893C259.725 29.3571 260.068 28.7893 260.614 28.4893L279.471 18.2036V18.2143Z" fill="#25E4E1"/>
</g>
<path d="M61.28 76.8571V68.0231H57.738V67.0571H65.9V68.0231H62.358V76.8571H61.28ZM67.2186 76.8571V67.0571H68.2966V71.4391H73.9946V67.0571H75.0726V76.8571H73.9946V72.4051H68.2966V76.8571H67.2186ZM77.2264 76.8571V67.0571H84.2404V68.0091H78.3044V71.4391H82.1824V72.3771H78.3044V75.9051H84.2964V76.8571H77.2264ZM88.8612 76.8571V67.0571H89.9392L95.8332 75.0091V67.0571H96.8552V76.8571H95.9032L89.8832 68.6951V76.8571H88.8612ZM99.0057 76.8571V67.0571H106.02V68.0091H100.084V71.4391H103.962V72.3771H100.084V75.9051H106.076V76.8571H99.0057ZM106.597 76.8571L110.377 71.7751L106.835 67.0571H108.151L111.021 70.9491L113.891 67.0571H115.151L111.651 71.7611L115.445 76.8571H114.143L111.007 72.5871L107.857 76.8571H106.597ZM119.126 76.8571V68.0231H115.584V67.0571H123.746V68.0231H120.204V76.8571H119.126ZM128.072 76.8571V67.0571H129.15V75.8911H134.988V76.8571H128.072ZM136.521 76.8571V67.0571H143.535V68.0091H137.599V71.4391H141.477V72.3771H137.599V75.9051H143.591V76.8571H136.521ZM148.281 76.8571L144.263 67.0571H145.425L148.967 75.8491L152.565 67.0571H153.657L149.583 76.8571H148.281ZM154.787 76.8571V67.0571H161.801V68.0091H155.865V71.4391H159.743V72.3771H155.865V75.9051H161.857V76.8571H154.787ZM163.414 76.8571V67.0571H164.492V75.8911H170.33V76.8571H163.414ZM173.849 76.8571L177.909 67.0571H179.211L183.243 76.8571H182.067L180.835 73.7771H176.215L174.969 76.8571H173.849ZM176.593 72.8531H180.457L178.525 68.0511L176.593 72.8531ZM185.27 76.8571L183.156 67.0571H184.248L185.914 75.1491L188.336 67.0571H189.386L191.808 75.1211L193.488 67.0571H194.538L192.424 76.8571H191.332L188.854 68.5551L186.362 76.8571H185.27ZM194.439 76.8571L198.499 67.0571H199.801L203.833 76.8571H202.657L201.425 73.7771H196.805L195.559 76.8571H194.439ZM197.183 72.8531H201.047L199.115 68.0511L197.183 72.8531ZM204.963 76.8571V67.0571H206.041V76.8571H204.963ZM210.905 76.8571V68.0231H207.363V67.0571H215.525V68.0231H211.983V76.8571H210.905ZM220.158 76.9971C219.384 76.9971 218.642 76.8431 217.932 76.5351C217.223 76.2178 216.598 75.7651 216.056 75.1771L216.77 74.4351C217.274 74.9765 217.811 75.3825 218.38 75.6531C218.959 75.9238 219.566 76.0591 220.2 76.0591C220.714 76.0591 221.166 75.9798 221.558 75.8211C221.96 75.6531 222.272 75.4245 222.496 75.1351C222.72 74.8365 222.832 74.5005 222.832 74.1271C222.832 73.6231 222.655 73.2358 222.3 72.9651C221.955 72.6945 221.381 72.4938 220.578 72.3631L219.164 72.1391C218.222 71.9805 217.526 71.7005 217.078 71.2991C216.63 70.8978 216.406 70.3518 216.406 69.6611C216.406 69.1198 216.551 68.6438 216.84 68.2331C217.13 67.8225 217.531 67.5051 218.044 67.2811C218.567 67.0478 219.169 66.9311 219.85 66.9311C220.541 66.9311 221.218 67.0431 221.88 67.2671C222.552 67.4911 223.164 67.8131 223.714 68.2331L223.098 69.0731C222.025 68.2611 220.928 67.8551 219.808 67.8551C219.342 67.8551 218.931 67.9298 218.576 68.0791C218.222 68.2191 217.946 68.4198 217.75 68.6811C217.554 68.9331 217.456 69.2318 217.456 69.5771C217.456 70.0345 217.61 70.3845 217.918 70.6271C218.226 70.8698 218.735 71.0471 219.444 71.1591L220.844 71.3831C221.918 71.5605 222.697 71.8638 223.182 72.2931C223.668 72.7131 223.91 73.3058 223.91 74.0711C223.91 74.6405 223.752 75.1491 223.434 75.5971C223.117 76.0358 222.674 76.3811 222.104 76.6331C221.544 76.8758 220.896 76.9971 220.158 76.9971Z" fill="#25E4E1"/>
<defs>
<clipPath id="clip0_45_376">
<rect width="48" height="54.8571" fill="white" transform="translate(234)"/>
</clipPath>
</defs>
</svg>
