<svg width="48" height="55" viewBox="0 0 48 55" fill="none" xmlns="http://www.w3.org/2000/svg">
<g clip-path="url(#clip0_146_28)">
<path d="M21.5357 1.10356C23.0679 0.267848 24.9214 0.267848 26.4643 1.10356L45.2464 11.3571C45.7929 11.6571 46.1357 12.2357 46.1357 12.8571C46.1357 13.4786 45.7929 14.0571 45.2464 14.3571L24.825 25.5C24.3107 25.7786 23.7 25.7786 23.1857 25.5L2.75357 14.3571C2.20714 14.0571 1.86429 13.4786 1.86429 12.8571C1.86429 12.2357 2.20714 11.6571 2.75357 11.3571L21.5357 1.10356ZM2.53929 18.2143L21.3964 28.5C21.9429 28.8 22.2857 29.3786 22.2857 30V53.1428C22.2857 53.7428 21.9643 54.3107 21.45 54.6214C20.9357 54.9321 20.2821 54.9428 19.7571 54.6536L2.67857 45.3321C1.02857 44.4321 0 42.7071 0 40.8214V19.7143C0 19.1143 0.321429 18.5464 0.835714 18.2357C1.35 17.925 2.00357 17.9143 2.52857 18.2036L2.53929 18.2143ZM45.4714 18.2143C46.0071 17.925 46.65 17.9357 47.1643 18.2464C47.6786 18.5571 48 19.1143 48 19.725V40.8321C48 42.7178 46.9714 44.4428 45.3214 45.3428L28.2536 54.6428C27.7179 54.9321 27.075 54.9214 26.5607 54.6107C26.0464 54.3 25.725 53.7428 25.725 53.1321V29.9893C25.725 29.3571 26.0679 28.7893 26.6143 28.4893L45.4714 18.2036V18.2143Z" fill="#25E4E1"/>
</g>
<defs>
<clipPath id="clip0_146_28">
<rect width="48" height="54.8571" fill="white"/>
</clipPath>
</defs>
</svg>
